<svg width="41" height="41" viewBox="0 0 41 41" fill="none" xmlns="http://www.w3.org/2000/svg">
<path d="M39 20.6974C39 19.2104 38.8749 18.1253 38.6042 17H21V23.7115H31.3333C31.125 25.3794 30 27.8912 27.5 29.5791L27.4649 29.8038L33.031 33.9629L33.4167 34C36.9583 30.8451 39 26.2032 39 20.6974Z" fill="#4285F4"/>
<path d="M21.08 38C25.94 38 30.0199 36.4487 33 33.7729L27.32 29.5068C25.8 30.5345 23.76 31.252 21.08 31.252C16.3201 31.252 12.2801 28.2078 10.84 24L10.6289 24.0174L5.07266 28.1864L5 28.3822C7.95997 34.083 14.04 38 21.08 38Z" fill="#34A853"/>
<path d="M11 23.5489C10.6083 22.446 10.3815 21.2642 10.3815 20.0432C10.3815 18.822 10.6083 17.6403 10.9794 16.5374L10.969 16.3025L5.16912 12L4.97935 12.0862C3.72166 14.4891 3 17.1874 3 20.0432C3 22.899 3.72166 25.5971 4.97935 28L11 23.5489Z" fill="#FBBC05"/>
<path d="M21.5833 9.74788C25.069 9.74788 27.4203 11.1634 28.761 12.3463L34 7.5374C30.7825 4.72577 26.5953 3 21.5833 3C14.3229 3 8.0526 6.91687 5 12.6177L11.0021 17C12.5079 12.7922 16.6743 9.74788 21.5833 9.74788Z" fill="#EB4335"/>
</svg>
